# xmcd
#
# Track frame offsets:
#	150
#	21893
#	41321
#	59797
#	81031
#	107249
#	122336
#	137299
#	156662
#	172066
#
# Disc length: 2470 seconds
#
# Revision: 0
# Processed by: cddbd v1.5.2PL0 Copyright (c) Steve Scherf et al.
# Submitted via: audiograbber 1.83.01
#
DISCID=8209a40a
DTITLE=Brandon FLowers - Flamingo
DYEAR=2010
DGENRE=Rock
TTITLE0=Welcome to Fabulous Las Vegas
TTITLE1=Only the Young
TTITLE2=Hard Enough
TTITLE3=Jilted Lovers and Broken Hearts
TTITLE4=Playing with Fire
TTITLE5=Was it Somerthing I said?
TTITLE6=Magdalena
TTITLE7=Crossfire
TTITLE8=On the Floor
TTITLE9=Swallow It
EXTD=
EXTT0=
EXTT1=
EXTT2=
EXTT3=
EXTT4=
EXTT5=
EXTT6=
EXTT7=
EXTT8=
EXTT9=
PLAYORDER=
